<svg width="89" height="28" viewBox="0 0 89 28" fill="none" xmlns="http://www.w3.org/2000/svg">
<path d="M25.0418 26.9263L22.1088 22.115L19.2365 26.9263H15.7978L20.2155 19.6793L15.7129 12.9514H19.3053L22.1897 17.4433L24.9407 12.9514H28.3793L23.9495 19.8989L28.5007 26.9263H25.0418Z" fill="white"/>
<path d="M39.6786 22.1748C39.6786 25.2493 37.3322 27.1659 34.2576 27.1659C31.5471 27.1659 29.2645 25.6885 29.043 22.4743H31.976C32.1782 23.8718 33.311 24.4707 34.5449 24.4707C36.0821 24.4707 36.7456 23.4526 36.7456 22.1349C36.7456 20.7574 35.714 19.8989 34.2779 19.8989C33.0844 19.8989 32.2956 20.4579 31.9315 21.0569H29.1279L30.0968 12.9514H39.3175L39.0101 15.6665H32.4149L32.153 18.3487C32.153 18.3487 32.8457 17.5432 34.9454 17.5432C37.4738 17.5432 39.6786 19.2202 39.6786 22.1748Z" fill="white"/>
<path d="M29.3878 11.2104C27.8253 5.19924 22.8685 0.97583 12.5818 0.97583H0.162109L1.84807 12.2276C3.11634 22.3804 7.05059 25.6465 14.0129 26.8494C14.0453 26.8543 14.2657 26.8853 14.2688 26.6307C14.2698 26.5389 14.2111 26.4601 14.1302 26.4261C9.42429 24.4706 8.88725 18.0571 7.88194 11.6217L7.10419 6.49292H14.1939C20.7305 6.49292 25.7772 6.3911 28.9732 11.3712C29.0207 11.441 29.0945 11.4929 29.1825 11.4929C29.3059 11.4929 29.398 11.3941 29.398 11.2723C29.3959 11.2504 29.3929 11.2294 29.3878 11.2104Z" fill="#5FAF2D"/>
<path d="M49.1984 14.6883H44.3438V12.9514H56.0555V14.6883H51.2009V26.9263H49.1984V14.6883Z" fill="white"/>
<path d="M65.4131 22.2745H56.7153C56.8366 23.2059 57.2513 23.9545 57.9593 24.5205C58.6672 25.0865 59.5471 25.369 60.5989 25.369C61.8803 25.369 62.9119 24.9427 63.6937 24.0913L64.7658 25.329C64.2803 25.888 63.6765 26.3143 62.9554 26.6067C62.2343 26.8992 61.4283 27.046 60.5383 27.046C59.4055 27.046 58.4012 26.8164 57.5244 26.3572C56.6475 25.898 55.9699 25.2562 55.4915 24.4307C55.0131 23.6061 54.7734 22.6738 54.7734 21.6357C54.7734 20.6115 55.006 19.6862 55.4713 18.8607C55.9365 18.0351 56.5767 17.3933 57.3929 16.9341C58.2081 16.4749 59.1284 16.2454 60.1539 16.2454C61.1784 16.2454 62.0927 16.4749 62.8947 16.9341C63.6968 17.3933 64.3238 18.0351 64.7759 18.8607C65.227 19.6862 65.4535 20.6305 65.4535 21.6956C65.4535 21.8423 65.4404 22.035 65.4131 22.2745ZM57.8187 18.7009C57.1916 19.2599 56.8245 19.9916 56.7163 20.897H63.5936C63.4854 20.0056 63.1183 19.2769 62.4912 18.7109C61.8642 18.1449 61.0854 17.8625 60.1549 17.8625C59.2245 17.8625 58.4457 18.142 57.8187 18.7009Z" fill="white"/>
<path d="M69.524 26.3472C68.6674 25.8811 67.9969 25.2392 67.5114 24.4207C67.0259 23.6021 66.7832 22.6738 66.7832 21.6357C66.7832 20.5975 67.0259 19.6692 67.5114 18.8507C67.9969 18.0321 68.6674 17.3933 69.524 16.9341C70.3807 16.4749 71.3546 16.2454 72.4469 16.2454C73.4178 16.2454 74.2836 16.438 75.0461 16.8243C75.8077 17.2106 76.3984 17.7696 76.8161 18.5013L75.3394 19.4396C75.0027 18.9335 74.5839 18.5542 74.0853 18.3017C73.5867 18.0491 73.0335 17.9223 72.4267 17.9223C71.7258 17.9223 71.0947 18.0751 70.5354 18.3815C69.9761 18.688 69.5372 19.1232 69.2206 19.6892C68.9041 20.2552 68.7453 20.904 68.7453 21.6357C68.7453 22.3813 68.9041 23.0372 69.2206 23.6021C69.5372 24.1681 69.9761 24.6033 70.5354 24.9098C71.0947 25.2162 71.7248 25.369 72.4267 25.369C73.0335 25.369 73.5867 25.2432 74.0853 24.9897C74.5839 24.7371 75.0027 24.3578 75.3394 23.8517L76.8161 24.77C76.3984 25.5017 75.8077 26.0647 75.0461 26.457C74.2846 26.8493 73.4178 27.046 72.4469 27.046C71.3546 27.046 70.3807 26.8134 69.524 26.3472Z" fill="white"/>
<path d="M87.6389 17.4133C88.4409 18.1919 88.8424 19.3328 88.8424 20.8371V26.9262H86.9006V21.0567C86.9006 20.0316 86.6508 19.26 86.1522 18.7409C85.6535 18.2218 84.9385 17.9623 84.008 17.9623C82.9562 17.9623 82.1269 18.2647 81.5201 18.8706C80.9132 19.4766 80.6098 20.345 80.6098 21.476V26.9262H78.668V12.1128H80.6098V17.8425C81.0144 17.3364 81.5433 16.9441 82.1977 16.6646C82.852 16.3851 83.5833 16.2454 84.3924 16.2454C85.7537 16.2454 86.8358 16.6347 87.6389 17.4133Z" fill="white"/>
</svg>
