<svg width="210" height="719" viewBox="0 0 210 719" fill="none" xmlns="http://www.w3.org/2000/svg">
<path d="M134.4 288.829C134.4 309.826 131.091 325.701 124.473 336.455C117.855 347.209 107.164 354.891 92.4 359.5C107.164 364.109 117.855 371.791 124.473 382.545C131.091 393.299 134.4 409.175 134.4 430.171V598.398C134.4 638.343 153.236 658.315 190.909 658.315H210V719H176.4C138.218 719 109.455 709.27 90.1091 689.81C70.7636 670.862 61.0909 642.696 61.0909 605.312V428.635C61.0909 403.029 49.6364 390.226 26.7273 390.226H0V328.773H26.7273C49.6364 328.773 61.0909 315.971 61.0909 290.365V113.688C61.0909 76.3041 70.7636 48.1382 90.1091 29.1902C109.455 9.73006 138.218 0 176.4 0H210V60.6848H190.909C153.236 60.6848 134.4 80.6571 134.4 120.602V288.829Z" fill="#EBF0F0"/>
</svg>
