<svg width="210" height="600" viewBox="0 0 210 600" fill="none" xmlns="http://www.w3.org/2000/svg">
<path d="M134.4 229.231C134.4 250.256 131.091 266.154 124.473 276.923C117.855 287.692 107.164 295.385 92.4 300C107.164 304.615 117.855 312.308 124.473 323.077C131.091 333.846 134.4 349.744 134.4 370.769V479.231C134.4 519.231 153.236 539.231 190.909 539.231H210V600H176.4C138.218 600 109.455 590.256 90.1091 570.769C70.7636 551.795 61.0909 523.59 61.0909 486.154V369.231C61.0909 343.59 49.6364 330.769 26.7273 330.769H0V269.231H26.7273C49.6364 269.231 61.0909 256.41 61.0909 230.769V113.846C61.0909 76.4102 70.7636 48.2051 90.1091 29.2308C109.455 9.7436 138.218 0 176.4 0H210V60.7692H190.909C153.236 60.7692 134.4 80.7692 134.4 120.769V229.231Z" fill="#EBF0F0"/>
</svg>
